# Blender v2.79 (sub 0) OBJ File: ''
# www.blender.org
o Plane_Plane.003
v 8.809594 0.149695 -8.193911
v 7.634577 0.516482 -8.193911
v 6.459561 -0.041074 -8.193911
v 5.284544 0.150616 -8.193911
v 4.109528 -0.174703 -8.193911
v 2.934511 -0.942380 -8.193911
v 1.759495 -1.442799 -8.193911
v 0.584478 -1.383818 -8.193911
v -0.590538 -2.849133 -8.193911
v -1.765555 -2.869408 -8.193911
v -2.940571 -2.896133 -8.193911
v -4.115588 -2.976311 -8.193911
v -5.290605 -2.531979 -8.193911
v -6.465621 -0.582043 -8.193911
v -7.640637 -0.544257 -8.193911
v -8.815654 0.673556 -8.193911
v 8.809594 -0.204195 -7.018894
v 7.634577 0.208675 -7.018894
v 6.459561 -0.335979 -7.018894
v 5.284544 -0.819811 -7.018894
v 4.109528 -0.985695 -7.018894
v 2.934511 -1.116098 -7.018894
v 1.759495 -1.678724 -7.018894
v 0.584478 -1.424368 -7.018894
v -0.590538 -1.211021 -7.018894
v -1.765555 -2.180064 -7.018894
v -2.940571 -2.489716 -7.018894
v -4.115588 -2.548697 -7.018894
v -5.290605 -0.781795 -7.018894
v -6.465621 -0.248430 -7.018894
v -7.640637 -0.322155 -7.018894
v -8.815654 0.937646 -7.018894
v 8.809594 0.345990 -5.843878
v 7.634577 -0.322157 -5.843878
v 6.459561 -0.100054 -5.843878
v 5.284544 -1.044677 -5.843878
v 4.109528 -1.387979 -5.843878
v 2.934511 -1.706574 -5.843878
v 1.759495 -1.619743 -5.843878
v 0.584478 -1.311301 -5.843878
v -0.590538 -0.735025 -5.843878
v -1.765555 -0.128768 -5.843878
v -2.940571 -0.896402 -5.843878
v -4.115588 -0.799535 -5.843878
v -5.290605 0.627664 -5.843878
v -6.465621 0.438235 -5.843878
v -7.640637 -0.086230 -5.843878
v -8.815654 0.090712 -5.843878
v 8.809594 0.827660 -4.668861
v 7.634577 0.711743 -4.668861
v 6.459561 -0.263175 -4.668861
v 5.284544 -0.604621 -4.668861
v 4.109528 -1.308249 -4.668861
v 2.934511 -1.796687 -4.668861
v 1.759495 -1.678724 -4.668861
v 0.584478 -1.365386 -4.668861
v -0.590538 -0.316712 -4.668861
v -1.765555 0.298816 -4.668861
v -2.940571 0.504936 -4.668861
v -4.115588 0.976122 -4.668861
v -5.290605 0.985540 -4.668861
v -6.465621 0.631393 -4.668861
v -7.640637 0.284243 -4.668861
v -8.815654 0.267655 -4.668861
v 8.809594 0.026201 -3.493845
v 7.634577 0.439992 -3.493845
v 6.459561 -0.309167 -3.493845
v 5.284544 -0.631807 -3.493845
v 4.109528 -1.517447 -3.493845
v 2.934511 -1.737705 -3.493845
v 1.759495 -1.589921 -3.493845
v 0.584478 -0.888064 -3.493845
v -0.590538 0.245538 -3.493845
v -1.765555 1.172649 -3.493845
v -2.940571 1.458498 -3.493845
v -4.115588 1.394865 -3.493845
v -5.290605 1.395139 -3.493845
v -6.465621 1.169884 -3.493845
v -7.640637 0.815997 -3.493845
v -8.815654 0.739505 -3.493845
v 8.809594 -0.310175 -2.318828
v 7.634577 0.050163 -2.318828
v 6.459561 0.303598 -2.318828
v 5.284544 -1.117481 -2.318828
v 4.109528 -1.496885 -2.318828
v 2.934511 -1.142709 -2.318828
v 1.759495 -0.421686 -2.318828
v 0.584478 0.168126 -2.318828
v -0.590538 0.559798 -2.318828
v -1.765555 1.335654 -2.318828
v -2.940571 1.565244 -2.318828
v -4.115588 1.819600 -2.318828
v -5.290605 1.919129 -2.318828
v -6.465621 1.801169 -2.318828
v -7.640637 1.280992 -2.318828
v -8.815654 1.211355 -2.318828
v 8.809594 0.149695 -1.143812
v 7.634577 0.385619 -1.143812
v 6.459561 0.503582 -1.143812
v 5.284544 -1.044676 -1.143812
v 4.109528 -1.088912 -1.143812
v 2.934511 -0.754377 -1.143812
v 1.759495 -0.546317 -1.143812
v 0.584478 0.090712 -1.143812
v -0.590538 0.988434 -1.143812
v -1.765555 1.743108 -1.143812
v -2.940571 2.037093 -1.143812
v -4.115588 2.378884 -1.143812
v -5.290605 2.505257 -1.143812
v -6.465621 2.469315 -1.143812
v -7.640637 2.056447 -1.143812
v -8.815654 1.879502 -1.143812
v 8.809594 0.641819 0.031205
v 7.634577 0.869276 0.031205
v 6.459561 1.107218 0.031205
v 5.284544 -0.475600 0.031205
v 4.109528 -0.922250 0.031205
v 2.934511 -1.013342 0.031205
v 1.759495 -0.360863 0.031205
v 0.584478 0.294266 0.031205
v -0.590538 1.033490 0.031205
v -1.765555 0.955155 0.031205
v -2.940571 1.423405 0.031205
v -4.115588 2.295136 0.031205
v -5.290605 2.945397 0.031205
v -6.465621 2.638942 0.031205
v -7.640637 2.273018 0.031205
v -8.815654 2.058865 0.031205
v 8.809594 1.169266 1.206221
v 7.634577 1.224257 1.206221
v 6.459561 1.241408 1.206221
v 5.284544 0.501737 1.206221
v 4.109528 -1.206874 1.206221
v 2.934511 -1.383818 1.206221
v 1.759495 -0.641945 1.206221
v 0.584478 0.246459 1.206221
v -0.590538 0.069516 1.206221
v -1.765555 0.266734 1.206221
v -2.940571 1.031402 1.206221
v -4.115588 1.919129 1.206221
v -5.290605 2.325562 1.206221
v -6.465621 2.354434 1.206221
v -7.640637 2.002995 1.206221
v -8.815654 2.235232 1.206221
v 8.809594 1.624224 2.381238
v 7.634577 1.493360 2.381238
v 6.459561 0.933384 2.381238
v 5.284544 0.354284 2.381238
v 4.109528 -1.287974 2.381238
v 2.934511 -1.603846 2.381238
v 1.759495 -1.329445 2.381238
v 0.584478 -1.092598 2.381238
v -0.590538 -1.231757 2.381238
v -1.765555 -0.338514 2.381238
v -2.940571 0.671653 2.381238
v -4.115588 1.071275 2.381238
v -5.290605 1.234742 2.381238
v -6.465621 1.788035 2.381238
v -7.640637 2.413098 2.381238
v -8.815654 2.459638 2.381238
v 8.809594 1.790108 3.556254
v 7.634577 1.647263 3.556254
v 6.459561 0.994525 3.556254
v 5.284544 -1.006200 3.556254
v 4.109528 -1.458466 3.556254
v 2.934511 -1.560762 3.556254
v 1.759495 -1.560762 3.556254
v 0.584478 -1.560762 3.556254
v -0.590538 -1.560762 3.556254
v -1.765555 -1.045050 3.556254
v -2.940571 -0.256738 3.556254
v -4.115588 0.149695 3.556254
v -5.290605 0.585601 3.556254
v -6.465621 1.353280 3.556254
v -7.640637 2.037093 3.556254
v -8.815654 2.296000 3.556254
v 8.809594 1.412260 4.731271
v 7.634577 -0.241057 4.731271
v 6.459561 -0.595866 4.731271
v 5.284544 -0.855291 4.731271
v 4.109528 -0.829026 4.731271
v 2.934511 -0.760196 4.731271
v 1.759495 -1.175799 4.731271
v 0.584478 -1.560762 4.731271
v -0.590538 -1.560762 4.731271
v -1.765555 -1.489743 4.731271
v -2.940571 -1.091677 4.731271
v -4.115588 -0.322155 4.731271
v -5.290605 0.585601 4.731271
v -6.465621 1.256110 4.731271
v -7.640637 1.197502 4.731271
v -8.815654 1.423319 4.731271
v 8.809594 0.142767 5.906288
v 7.634577 -0.217096 5.906288
v 6.459561 -0.257342 5.906288
v 5.284544 -0.474217 5.906288
v 4.109528 -0.390195 5.906288
v 2.934511 -0.204195 5.906288
v 1.759495 -0.804129 5.906288
v 0.584478 -1.358935 5.906288
v -0.590538 -1.462153 5.906288
v -1.765555 -1.560762 5.906288
v -2.940571 -1.383818 5.906288
v -4.115588 -0.641139 5.906288
v -5.290605 0.040946 5.906288
v -6.465621 0.670416 5.906288
v -7.640637 0.823369 5.906288
v -8.815654 2.037093 5.906288
v 8.809594 0.255675 7.081304
v 7.634577 -0.060426 7.081304
v 6.459561 0.639859 7.081304
v 5.284544 0.234479 7.081304
v 4.109528 -0.011583 7.081304
v 2.934511 0.293461 7.081304
v 1.759495 -0.221704 7.081304
v 0.584478 -0.550017 7.081304
v -0.590538 -1.394704 7.081304
v -1.765555 -1.560762 7.081304
v -2.940571 -1.539566 7.081304
v -4.115588 -0.970950 7.081304
v -5.290605 -0.840028 7.081304
v -6.465621 -0.298194 7.081304
v -7.640637 1.579239 7.081304
v -8.815654 1.480458 7.081304
v 8.809594 0.548839 8.256321
v 7.634577 1.429454 8.256321
v 6.459561 2.134969 8.256321
v 5.284544 1.046392 8.256321
v 4.109528 0.943175 8.256321
v 2.934511 0.926587 8.256321
v 1.759495 0.463392 8.256321
v 0.584478 -0.185821 8.256321
v -0.590538 -0.972346 8.256321
v -1.765555 -1.512869 8.256321
v -2.940571 -1.501781 8.256321
v -4.115588 -1.206874 8.256321
v -5.290605 0.036958 8.256321
v -6.465621 0.645505 8.256321
v -7.640637 0.948704 8.256321
v -8.815654 0.830744 8.256321
vn 0.3042 0.9169 0.2582
vn -0.1080 0.9941 -0.0082
vn -0.2700 0.8092 -0.5219
vn 0.1145 0.9036 0.4127
vn 0.3002 0.9114 0.2816
vn 0.2337 0.9210 -0.3117
vn 0.1792 0.9086 -0.3773
vn 0.1118 0.9303 -0.3493
vn -0.0308 0.9552 -0.2943
vn -0.1146 0.9843 -0.1339
vn -0.4820 0.6307 0.6082
vn -0.6035 0.7045 0.3734
vn -0.2748 0.9552 -0.1096
vn 0.1880 0.7825 -0.5937
vn -0.4136 0.8819 0.2262
vn -0.1349 0.9831 0.1234
vn -0.2877 0.8981 -0.3328
vn -0.5880 0.8015 0.1084
vn -0.2055 0.9743 -0.0924
vn 0.1523 0.9636 -0.2196
vn 0.1362 0.8991 -0.4160
vn 0.1057 0.9735 -0.2026
vn -0.2250 0.9742 0.0161
vn -0.4571 0.8857 -0.0811
vn -0.2334 0.5443 0.8058
vn -0.1639 0.9749 -0.1504
vn 0.2483 0.8839 -0.3964
vn 0.3470 0.5801 -0.7369
vn -0.1088 0.8753 0.4713
vn -0.5194 0.8545 -0.0040
vn -0.4775 0.8726 -0.1028
vn -0.2718 0.9619 0.0300
vn -0.5953 0.8023 -0.0434
vn -0.7821 0.6190 -0.0719
vn -0.7662 0.5750 -0.2870
vn -0.6662 0.6741 -0.3189
vn -0.4825 0.8599 0.1667
vn -0.6928 0.6311 0.3489
vn -0.6341 0.6594 0.4039
vn -0.1903 0.9387 -0.2874
vn -0.2136 0.8066 -0.5512
vn -0.4131 0.6499 -0.6380
vn -0.1643 0.7861 0.5959
vn -0.2049 0.9457 0.2524
vn -0.3989 0.8954 -0.1980
vn -0.5583 0.8255 0.0830
vn -0.4670 0.8675 0.1717
vn -0.1739 0.9648 -0.1974
vn -0.1955 0.9359 -0.2930
vn -0.6605 0.7202 -0.2123
vn -0.8175 0.5733 0.0558
vn -0.5983 0.6713 0.4374
vn -0.1695 0.9353 -0.3106
vn 0.0443 0.9433 -0.3291
vn -0.0625 0.9058 -0.4191
vn -0.1180 0.7937 -0.5967
vn -0.3324 0.8699 0.3645
vn -0.1733 0.9072 0.3833
vn -0.3248 0.9458 0.0042
vn -0.2882 0.9556 0.0611
vn 0.0550 0.9659 -0.2530
vn 0.2675 0.9126 -0.3092
vn 0.1030 0.9939 0.0390
vn -0.1092 0.9575 0.2669
vn -0.2036 0.9711 0.1244
vn -0.1749 0.9831 0.0533
vn -0.0122 0.8542 -0.5198
vn 0.0994 0.9163 -0.3879
vn 0.1921 0.9195 -0.3429
vn 0.1012 0.8243 -0.5570
vn -0.4070 0.8998 0.1569
vn -0.1937 0.9569 0.2164
vn 0.0866 0.9942 0.0631
vn 0.1121 0.9917 -0.0624
vn 0.2836 0.7670 -0.5755
vn 0.3657 0.9249 -0.1038
vn 0.3437 0.9386 0.0294
vn 0.4964 0.8366 0.2319
vn 0.3741 0.8651 0.3341
vn 0.1156 0.9901 0.0793
vn -0.1560 0.8819 -0.4449
vn -0.3730 0.8630 -0.3407
vn -0.3959 0.8344 -0.3835
vn -0.3413 0.8198 -0.4599
vn 0.1313 0.9846 0.1158
vn 0.2323 0.9700 -0.0710
vn 0.2555 0.9657 0.0465
vn 0.3872 0.8963 -0.2159
vn 0.3707 0.6745 -0.6384
vn 0.4614 0.8839 0.0760
vn 0.4768 0.8672 -0.1435
vn 0.5453 0.8302 0.1162
vn 0.3409 0.7119 0.6139
vn 0.0961 0.9540 0.2840
vn -0.1596 0.9742 -0.1596
vn -0.3621 0.9056 -0.2210
vn -0.3077 0.8188 -0.4847
vn -0.3551 0.8536 -0.3811
vn -0.4032 0.7568 -0.5145
vn 0.3099 0.9222 -0.2312
vn 0.5642 0.8159 -0.1265
vn 0.6473 0.6971 -0.3084
vn 0.4890 0.7535 -0.4394
vn 0.4769 0.8693 -0.1299
vn 0.5694 0.8175 -0.0865
vn 0.2146 0.8971 0.3862
vn -0.0891 0.6622 0.7440
vn -0.0560 0.9455 0.3207
vn 0.0000 1.0000 0.0000
vn -0.0435 0.9910 -0.1267
vn -0.3535 0.8765 -0.3268
vn -0.5498 0.7921 -0.2651
vn -0.2866 0.6807 -0.6742
vn -0.1045 0.6772 -0.7283
vn 0.4394 0.8452 -0.3042
vn 0.4887 0.7445 -0.4549
vn 0.5790 0.7990 -0.1623
vn 0.5230 0.8030 -0.2857
vn 0.2646 0.9195 0.2907
vn 0.0413 0.8173 0.5747
vn 0.3390 0.7306 0.5927
vn 0.4810 0.8023 0.3535
vn 0.2383 0.9543 0.1806
vn -0.0117 0.9999 -0.0117
vn -0.1119 0.9933 -0.0285
vn -0.2828 0.9405 -0.1882
vn -0.1286 0.8988 -0.4191
vn -0.2411 0.5259 -0.8156
vn -0.1853 0.7755 -0.6035
vn 0.1630 0.7789 -0.6056
vn 0.2129 0.9707 -0.1114
vn 0.2043 0.9168 -0.3431
vn 0.2683 0.8273 0.4935
vn 0.4303 0.8202 0.3771
vn 0.5727 0.7583 0.3114
vn 0.5320 0.6951 0.4836
vn 0.4053 0.8029 0.4372
vn 0.2350 0.9606 0.1484
vn 0.0838 0.9943 0.0659
vn 0.0137 0.9992 -0.0364
vn -0.0557 0.9409 -0.3339
vn 0.0093 0.5751 -0.8180
vn 0.1423 0.5886 -0.7958
vn 0.1481 0.8540 -0.4987
vn 0.0789 0.9723 -0.2199
vn 0.2263 0.8920 -0.3914
vn 0.4437 0.8592 0.2550
vn 0.5798 0.7744 0.2531
vn 0.4380 0.7996 0.4109
vn 0.2602 0.7587 0.5972
vn 0.4007 0.8007 0.4453
vn 0.5286 0.8215 0.2136
vn 0.4795 0.8594 0.1776
vn 0.3438 0.9357 0.0789
vn 0.5680 0.6037 -0.5594
vn 0.6300 0.4635 -0.6230
vn 0.4123 0.6745 -0.6124
vn 0.0039 0.9431 -0.3324
vn 0.0394 0.9266 -0.3741
vn 0.0861 0.8956 -0.4365
vn 0.3106 0.9398 -0.1425
vn 0.3825 0.8507 0.3605
vn 0.1839 0.7582 0.6255
vn 0.2074 0.8133 0.5436
vn 0.4890 0.8552 0.1717
vn 0.5361 0.7924 0.2912
vn 0.2940 0.8497 0.4378
vn 0.4915 0.8402 -0.2292
vn 0.6202 0.5869 -0.5204
vn 0.1086 0.7419 -0.6617
vn -0.2197 0.9498 -0.2227
vn -0.2229 0.9040 -0.3647
vn -0.1300 0.8898 -0.4374
vn -0.0577 0.8807 -0.4701
vn -0.1396 0.9585 -0.2487
vn -0.1096 0.9277 0.3570
vn 0.1984 0.8010 0.5648
vn 0.4546 0.8088 0.3730
vn 0.5217 0.8524 0.0352
vn 0.4461 0.8065 0.3879
vn 0.3647 0.7317 0.5759
vn 0.3609 0.7372 -0.5712
vn -0.0149 0.9731 -0.2301
vn -0.2306 0.9058 -0.3556
vn -0.3393 0.9147 -0.2194
vn -0.2620 0.8783 -0.4000
vn -0.3194 0.8588 -0.4006
vn -0.3205 0.8071 -0.4958
vn -0.3108 0.9379 -0.1541
vn -0.2848 0.9330 0.2202
vn 0.1154 0.9911 0.0659
vn 0.4659 0.8365 0.2886
vn 0.2399 0.9018 0.3595
vn 0.0371 0.9251 0.3778
vn 0.6522 0.7549 0.0683
vn 0.6770 0.7296 -0.0972
vn 0.7183 0.6813 -0.1410
vn 0.5092 0.8329 0.2166
vn 0.0663 0.9718 -0.2264
vn -0.0364 0.9190 -0.3925
vn -0.0577 0.9274 -0.3697
vn -0.0891 0.8487 -0.5213
vn -0.1619 0.9731 -0.1639
vn 0.0077 0.9992 0.0398
vn 0.1138 0.9592 -0.2590
vn 0.1257 0.9669 0.2220
vn 0.1644 0.7972 0.5809
vn 0.5204 0.8495 -0.0866
vn 0.4274 0.9008 -0.0764
vn -0.0807 0.8753 0.4768
s off
f 1//1 2//1 18//1 17//1
f 17//2 18//2 34//2 33//2
f 33//3 34//3 50//3 49//3
f 49//4 50//4 66//4 65//4
f 65//5 66//5 82//5 81//5
f 81//6 82//6 98//6 97//6
f 97//7 98//7 114//7 113//7
f 113//8 114//8 130//8 129//8
f 129//9 130//9 146//9 145//9
f 145//10 146//10 162//10 161//10
f 161//11 162//11 178//11 177//11
f 177//12 178//12 194//12 193//12
f 193//13 194//13 210//13 209//13
f 209//14 210//14 226//14 225//14
f 2//15 3//15 19//15 18//15
f 18//16 19//16 35//16 34//16
f 34//17 35//17 51//17 50//17
f 50//18 51//18 67//18 66//18
f 66//19 67//19 83//19 82//19
f 82//20 83//20 99//20 98//20
f 98//21 99//21 115//21 114//21
f 114//22 115//22 131//22 130//22
f 130//23 131//23 147//23 146//23
f 146//24 147//24 163//24 162//24
f 162//25 163//25 179//25 178//25
f 178//26 179//26 195//26 194//26
f 194//27 195//27 211//27 210//27
f 210//28 211//28 227//28 226//28
f 3//29 4//29 20//29 19//29
f 19//30 20//30 36//30 35//30
f 35//31 36//31 52//31 51//31
f 51//32 52//32 68//32 67//32
f 67//33 68//33 84//33 83//33
f 83//34 84//34 100//34 99//34
f 99//35 100//35 116//35 115//35
f 115//36 116//36 132//36 131//36
f 131//37 132//37 148//37 147//37
f 147//38 148//38 164//38 163//38
f 163//39 164//39 180//39 179//39
f 179//40 180//40 196//40 195//40
f 195//41 196//41 212//41 211//41
f 211//42 212//42 228//42 227//42
f 4//43 5//43 21//43 20//43
f 20//44 21//44 37//44 36//44
f 36//45 37//45 53//45 52//45
f 52//46 53//46 69//46 68//46
f 68//47 69//47 85//47 84//47
f 84//48 85//48 101//48 100//48
f 100//49 101//49 117//49 116//49
f 116//50 117//50 133//50 132//50
f 132//51 133//51 149//51 148//51
f 148//52 149//52 165//52 164//52
f 164//53 165//53 181//53 180//53
f 180//54 181//54 197//54 196//54
f 196//55 197//55 213//55 212//55
f 212//56 213//56 229//56 228//56
f 5//57 6//57 22//57 21//57
f 21//58 22//58 38//58 37//58
f 37//59 38//59 54//59 53//59
f 53//60 54//60 70//60 69//60
f 69//61 70//61 86//61 85//61
f 85//62 86//62 102//62 101//62
f 101//63 102//63 118//63 117//63
f 117//64 118//64 134//64 133//64
f 133//65 134//65 150//65 149//65
f 149//66 150//66 166//66 165//66
f 165//67 166//67 182//67 181//67
f 181//68 182//68 198//68 197//68
f 197//69 198//69 214//69 213//69
f 213//70 214//70 230//70 229//70
f 6//71 7//71 23//71 22//71
f 22//72 23//72 39//72 38//72
f 38//73 39//73 55//73 54//73
f 54//74 55//74 71//74 70//74
f 70//75 71//75 87//75 86//75
f 86//76 87//76 103//76 102//76
f 102//77 103//77 119//77 118//77
f 118//78 119//78 135//78 134//78
f 134//79 135//79 151//79 150//79
f 150//80 151//80 167//80 166//80
f 166//81 167//81 183//81 182//81
f 182//82 183//82 199//82 198//82
f 198//83 199//83 215//83 214//83
f 214//84 215//84 231//84 230//84
f 7//85 8//85 24//85 23//85
f 23//86 24//86 40//86 39//86
f 39//87 40//87 56//87 55//87
f 55//88 56//88 72//88 71//88
f 71//89 72//89 88//89 87//89
f 87//90 88//90 104//90 103//90
f 103//91 104//91 120//91 119//91
f 119//92 120//92 136//92 135//92
f 135//93 136//93 152//93 151//93
f 151//94 152//94 168//94 167//94
f 167//95 168//95 184//95 183//95
f 183//96 184//96 200//96 199//96
f 199//97 200//97 216//97 215//97
f 215//98 216//98 232//98 231//98
f 8//99 9//99 25//99 24//99
f 24//100 25//100 41//100 40//100
f 40//101 41//101 57//101 56//101
f 56//102 57//102 73//102 72//102
f 72//103 73//103 89//103 88//103
f 88//104 89//104 105//104 104//104
f 104//105 105//105 121//105 120//105
f 120//106 121//106 137//106 136//106
f 136//107 137//107 153//107 152//107
f 152//108 153//108 169//108 168//108
f 168//109 169//109 185//109 184//109
f 184//110 185//110 201//110 200//110
f 200//111 201//111 217//111 216//111
f 216//112 217//112 233//112 232//112
f 9//113 10//113 26//113 25//113
f 25//114 26//114 42//114 41//114
f 41//115 42//115 58//115 57//115
f 57//116 58//116 74//116 73//116
f 73//117 74//117 90//117 89//117
f 89//118 90//118 106//118 105//118
f 105//119 106//119 122//119 121//119
f 121//120 122//120 138//120 137//120
f 137//121 138//121 154//121 153//121
f 153//122 154//122 170//122 169//122
f 169//123 170//123 186//123 185//123
f 185//124 186//124 202//124 201//124
f 201//125 202//125 218//125 217//125
f 217//126 218//126 234//126 233//126
f 10//127 11//127 27//127 26//127
f 26//128 27//128 43//128 42//128
f 42//129 43//129 59//129 58//129
f 58//130 59//130 75//130 74//130
f 74//131 75//131 91//131 90//131
f 90//132 91//132 107//132 106//132
f 106//133 107//133 123//133 122//133
f 122//134 123//134 139//134 138//134
f 138//135 139//135 155//135 154//135
f 154//136 155//136 171//136 170//136
f 170//137 171//137 187//137 186//137
f 186//138 187//138 203//138 202//138
f 202//139 203//139 219//139 218//139
f 218//140 219//140 235//140 234//140
f 11//141 12//141 28//141 27//141
f 27//142 28//142 44//142 43//142
f 43//143 44//143 60//143 59//143
f 59//144 60//144 76//144 75//144
f 75//145 76//145 92//145 91//145
f 91//146 92//146 108//146 107//146
f 107//147 108//147 124//147 123//147
f 123//148 124//148 140//148 139//148
f 139//149 140//149 156//149 155//149
f 155//150 156//150 172//150 171//150
f 171//151 172//151 188//151 187//151
f 187//152 188//152 204//152 203//152
f 203//153 204//153 220//153 219//153
f 219//154 220//154 236//154 235//154
f 12//155 13//155 29//155 28//155
f 28//156 29//156 45//156 44//156
f 44//157 45//157 61//157 60//157
f 60//158 61//158 77//158 76//158
f 76//159 77//159 93//159 92//159
f 92//160 93//160 109//160 108//160
f 108//161 109//161 125//161 124//161
f 124//162 125//162 141//162 140//162
f 140//163 141//163 157//163 156//163
f 156//164 157//164 173//164 172//164
f 172//165 173//165 189//165 188//165
f 188//166 189//166 205//166 204//166
f 204//167 205//167 221//167 220//167
f 220//168 221//168 237//168 236//168
f 13//169 14//169 30//169 29//169
f 29//170 30//170 46//170 45//170
f 45//171 46//171 62//171 61//171
f 61//172 62//172 78//172 77//172
f 77//173 78//173 94//173 93//173
f 93//174 94//174 110//174 109//174
f 109//175 110//175 126//175 125//175
f 125//176 126//176 142//176 141//176
f 141//177 142//177 158//177 157//177
f 157//178 158//178 174//178 173//178
f 173//179 174//179 190//179 189//179
f 189//180 190//180 206//180 205//180
f 205//181 206//181 222//181 221//181
f 221//182 222//182 238//182 237//182
f 14//183 15//183 31//183 30//183
f 30//184 31//184 47//184 46//184
f 46//185 47//185 63//185 62//185
f 62//186 63//186 79//186 78//186
f 78//187 79//187 95//187 94//187
f 94//188 95//188 111//188 110//188
f 110//189 111//189 127//189 126//189
f 126//190 127//190 143//190 142//190
f 142//191 143//191 159//191 158//191
f 158//192 159//192 175//192 174//192
f 174//193 175//193 191//193 190//193
f 190//194 191//194 207//194 206//194
f 206//195 207//195 223//195 222//195
f 222//196 223//196 239//196 238//196
f 15//197 16//197 32//197 31//197
f 31//198 32//198 48//198 47//198
f 47//199 48//199 64//199 63//199
f 63//200 64//200 80//200 79//200
f 79//201 80//201 96//201 95//201
f 95//202 96//202 112//202 111//202
f 111//203 112//203 128//203 127//203
f 127//204 128//204 144//204 143//204
f 143//205 144//205 160//205 159//205
f 159//206 160//206 176//206 175//206
f 175//207 176//207 192//207 191//207
f 191//208 192//208 208//208 207//208
f 207//209 208//209 224//209 223//209
f 223//210 224//210 240//210 239//210
