# Blender v2.79 (sub 0) OBJ File: ''
# www.blender.org
o Plane
v -8.050375 -1.930478 -8.050379
v -6.976991 -2.088930 -8.050379
v -5.903607 -1.878809 -8.050379
v -4.830223 -1.928225 -8.050379
v -3.756839 -1.973718 -8.050379
v -2.683455 -1.918168 -8.050379
v -1.610071 -2.156001 -8.050379
v -0.536687 -2.354108 -8.050379
v 0.536697 -2.315397 -8.050379
v 1.610081 -1.643800 -8.050379
v 2.683465 -1.233882 -8.050379
v 3.756849 -0.491380 -8.050379
v 4.830233 -0.756563 -8.050379
v 5.903617 -1.462502 -8.050379
v 6.977001 -1.921596 -8.050379
v 8.050385 -1.592327 -8.050379
v -8.050375 -2.448028 -6.976995
v -6.976991 -1.872533 -6.976995
v -5.903607 -1.449671 -6.976995
v -4.830223 -1.388262 -6.976995
v -3.756839 -0.998894 -6.976995
v -2.683455 -1.397993 -6.976995
v -1.610071 -1.597006 -6.976995
v -0.536687 -1.874573 -6.976995
v 0.536697 -1.541394 -6.976995
v 1.610081 -1.462031 -6.976995
v 2.683465 -0.941420 -6.976995
v 3.756849 -1.026076 -6.976995
v 4.830233 -1.155494 -6.976995
v 5.903617 -1.883139 -6.976995
v 6.977001 -2.309407 -6.976995
v 8.050385 -2.135492 -6.976995
v -8.050375 -2.487793 -5.903611
v -6.976991 -1.967654 -5.903611
v -5.903607 -1.867365 -5.903611
v -4.830223 -1.382656 -5.903611
v -3.756839 -1.101820 -5.903611
v -2.683455 -1.444712 -5.903611
v -1.610071 -1.618635 -5.903611
v -0.536687 -1.610665 -5.903611
v 0.536697 -1.517477 -5.903611
v 1.610081 -1.309225 -5.903611
v 2.683465 -0.803938 -5.903611
v 3.756849 -0.942104 -5.903611
v 4.830233 -1.173842 -5.903611
v 5.903617 -1.068478 -5.903611
v 6.977001 -1.235686 -5.903611
v 8.050385 -1.960940 -5.903611
v -8.050375 -2.742303 -4.830227
v -6.976991 -2.321192 -4.830227
v -5.903607 -2.213203 -4.830227
v -4.830223 -1.511698 -4.830227
v -3.756839 -1.424355 -4.830227
v -2.683455 -1.134810 -4.830227
v -1.610071 -1.083998 -4.830227
v -0.536687 -1.454609 -4.830227
v 0.536697 -1.423421 -4.830227
v 1.610081 -1.647780 -4.830227
v 2.683465 -1.418255 -4.830227
v 3.756849 -1.312847 -4.830227
v 4.830233 -0.759431 -4.830227
v 5.903617 -0.531436 -4.830227
v 6.977001 -0.611397 -4.830227
v 8.050385 -0.950418 -4.830227
v -8.050375 -2.190620 -3.756843
v -6.976991 -2.153450 -3.756843
v -5.903607 -1.994568 -3.756843
v -4.830223 -1.431654 -3.756843
v -3.756839 -1.422097 -3.756843
v -2.683455 -0.981903 -3.756843
v -1.610071 -0.876493 -3.756843
v -0.536687 -0.952372 -3.756843
v 0.536697 -1.245134 -3.756843
v 1.610081 -1.834546 -3.756843
v 2.683465 -1.399153 -3.756843
v 3.756849 -0.880077 -3.756843
v 4.830233 -0.600256 -3.756843
v 5.903617 -0.886018 -3.756843
v 6.977001 -0.255358 -3.756843
v 8.050385 -0.211649 -3.756843
v -8.050375 -1.379389 -2.683459
v -6.976991 -1.300563 -2.683459
v -5.903607 -1.153607 -2.683459
v -4.830223 -0.835814 -2.683459
v -3.756839 -1.527364 -2.683459
v -2.683455 -0.989598 -2.683459
v -1.610071 -0.522419 -2.683459
v -0.536687 -1.194291 -2.683459
v 0.536697 -1.454075 -2.683459
v 1.610081 -1.517495 -2.683459
v 2.683465 -0.957908 -2.683459
v 3.756849 -0.229629 -2.683459
v 4.830233 -0.049071 -2.683459
v 5.903617 -0.089553 -2.683459
v 6.977001 -0.137349 -2.683459
v 8.050385 -0.082314 -2.683459
v -8.050375 -0.227551 -1.610075
v -6.976991 -0.620085 -1.610075
v -5.903607 -0.296149 -1.610075
v -4.830223 -0.569063 -1.610075
v -3.756839 -1.187256 -1.610075
v -2.683455 -1.074469 -1.610075
v -1.610071 -0.737464 -1.610075
v -0.536687 -1.305971 -1.610075
v 0.536697 -1.821989 -1.610075
v 1.610081 -2.015708 -1.610075
v 2.683465 -1.037551 -1.610075
v 3.756849 -0.211228 -1.610075
v 4.830233 0.374581 -1.610075
v 5.903617 0.496154 -1.610075
v 6.977001 -0.002768 -1.610075
v 8.050385 -0.055886 -1.610075
v -8.050375 0.634191 -0.536691
v -6.976991 0.516203 -0.536691
v -5.903607 0.137741 -0.536691
v -4.830223 -0.320408 -0.536691
v -3.756839 -0.602489 -0.536691
v -2.683455 -0.593103 -0.536691
v -1.610071 -0.719210 -0.536691
v -0.536687 -1.323356 -0.536691
v 0.536697 -1.464586 -0.536691
v 1.610081 -1.948665 -0.536691
v 2.683465 -1.321514 -0.536691
v 3.756849 -0.465661 -0.536691
v 4.830233 0.003912 -0.536691
v 5.903617 0.194954 -0.536691
v 6.977001 0.391051 -0.536691
v 8.050385 0.300935 -0.536691
v -8.050375 0.471343 0.536693
v -6.976991 0.266706 0.536693
v -5.903607 0.582557 0.536693
v -4.830223 -0.013392 0.536693
v -3.756839 -0.312801 0.536693
v -2.683455 0.032882 0.536693
v -1.610071 -0.155160 0.536693
v -0.536687 -0.487878 0.536693
v 0.536697 -1.377668 0.536693
v 1.610081 -1.928901 0.536693
v 2.683465 -1.556028 0.536693
v 3.756849 -1.065873 0.536693
v 4.830233 -0.465525 0.536693
v 5.903617 0.022772 0.536693
v 6.977001 0.638204 0.536693
v 8.050385 1.223386 0.536693
v -8.050375 0.519813 1.610077
v -6.976991 0.757223 1.610077
v -5.903607 0.329564 1.610077
v -4.830223 0.188078 1.610077
v -3.756839 0.291012 1.610077
v -2.683455 0.174249 1.610077
v -1.610071 -0.055930 1.610077
v -0.536687 -0.238816 1.610077
v 0.536697 -0.823805 1.610077
v 1.610081 -1.347786 1.610077
v 2.683465 -1.224295 1.610077
v 3.756849 -0.719901 1.610077
v 4.830233 -0.451616 1.610077
v 5.903617 0.225241 1.610077
v 6.977001 1.320651 1.610077
v 8.050385 2.039911 1.610077
v -8.050375 1.491528 2.683461
v -6.976991 1.333516 2.683461
v -5.903607 1.010941 2.683461
v -4.830223 0.741129 2.683461
v -3.756839 0.749982 2.683461
v -2.683455 0.551218 2.683461
v -1.610071 0.269353 2.683461
v -0.536687 -0.010730 2.683461
v 0.536697 -0.535960 2.683461
v 1.610081 -1.183343 2.683461
v 2.683465 -1.155305 2.683461
v 3.756849 -0.396446 2.683461
v 4.830233 -0.179652 2.683461
v 5.903617 0.129754 2.683461
v 6.977001 1.128359 2.683461
v 8.050385 1.464367 2.683461
v -8.050375 1.831038 3.756845
v -6.976991 2.361962 3.756845
v -5.903607 1.460803 3.756845
v -4.830223 1.486427 3.756845
v -3.756839 1.276599 3.756845
v -2.683455 0.746918 3.756845
v -1.610071 0.027528 3.756845
v -0.536687 -0.412053 3.756845
v 0.536697 -1.035092 3.756845
v 1.610081 -1.226345 3.756845
v 2.683465 -1.337626 3.756845
v 3.756849 -0.785969 3.756845
v 4.830233 -0.557698 3.756845
v 5.903617 -0.198969 3.756845
v 6.977001 0.601321 3.756845
v 8.050385 1.168226 3.756845
v -8.050375 2.076017 4.830229
v -6.976991 1.953055 4.830229
v -5.903607 1.600754 4.830229
v -4.830223 0.948451 4.830229
v -3.756839 0.283129 4.830229
v -2.683455 -0.072757 4.830229
v -1.610071 -0.377006 4.830229
v -0.536687 -0.692663 4.830229
v 0.536697 -1.129022 4.830229
v 1.610081 -1.089578 4.830229
v 2.683465 -1.677174 4.830229
v 3.756849 -0.834813 4.830229
v 4.830233 -0.722086 4.830229
v 5.903617 -0.000466 4.830229
v 6.977001 0.452385 4.830229
v 8.050385 0.731184 4.830229
v -8.050375 1.583701 5.903613
v -6.976991 1.212408 5.903613
v -5.903607 0.749143 5.903613
v -4.830223 0.168894 5.903613
v -3.756839 -0.686477 5.903613
v -2.683455 -0.426247 5.903613
v -1.610071 -0.955677 5.903613
v -0.536687 -1.142056 5.903613
v 0.536697 -1.168786 5.903613
v 1.610081 -1.261461 5.903613
v 2.683465 -1.252449 5.903613
v 3.756849 -0.974070 5.903613
v 4.830233 -0.072038 5.903613
v 5.903617 0.715407 5.903613
v 6.977001 0.446824 5.903613
v 8.050385 0.713066 5.903613
v -8.050375 0.773748 6.976997
v -6.976991 0.277741 6.976997
v -5.903607 0.064343 6.976997
v -4.830223 -0.385017 6.976997
v -3.756839 -0.365386 6.976997
v -2.683455 -0.433450 6.976997
v -1.610071 -0.819046 6.976997
v -0.536687 -1.621444 6.976997
v 0.536697 -1.338342 6.976997
v 1.610081 -1.120429 6.976997
v 2.683465 -0.806287 6.976997
v 3.756849 0.049877 6.976997
v 4.830233 0.740043 6.976997
v 5.903617 1.598129 6.976997
v 6.977001 0.589719 6.976997
v 8.050385 0.606963 6.976997
v -8.050375 -0.066739 8.050382
v -6.976991 -0.215771 8.050382
v -5.903607 -0.363018 8.050382
v -4.830223 -0.379504 8.050382
v -3.756839 -0.655351 8.050382
v -2.683455 -0.705220 8.050382
v -1.610071 -0.950895 8.050382
v -0.536687 -1.140457 8.050382
v 0.536697 -1.507104 8.050382
v 1.610081 -1.502759 8.050382
v 2.683465 -0.656636 8.050382
v 3.756849 0.513035 8.050382
v 4.830233 1.181557 8.050382
v 5.903617 1.608391 8.050382
v 6.977001 0.940060 8.050382
v 8.050385 0.988534 8.050382
vn -0.1479 0.8541 -0.4987
vn 0.5411 0.7877 -0.2946
vn -0.3706 0.9160 -0.1536
vn -0.4178 0.8839 -0.2103
vn 0.0854 0.9329 -0.3499
vn 0.4814 0.6795 0.5537
vn 0.2058 0.9541 0.2174
vn -0.1298 0.8102 -0.5717
vn 0.2958 0.9312 -0.2128
vn 0.2443 0.9490 0.1993
vn 0.1662 0.9043 0.3933
vn -0.1839 0.8577 -0.4801
vn -0.2423 0.8926 -0.3802
vn 0.1396 0.9893 -0.0427
vn -0.4004 0.8640 -0.3052
vn -0.5969 0.7982 0.0807
vn -0.4269 0.8683 0.2528
vn -0.3898 0.8992 -0.1986
vn -0.2986 0.8723 0.3872
vn -0.1482 0.9888 -0.0201
vn -0.2546 0.9547 -0.1540
vn -0.0952 0.9695 -0.2256
vn 0.2894 0.9454 -0.1497
vn -0.1111 0.7802 -0.6156
vn 0.0205 0.8070 -0.5902
vn 0.3641 0.8682 -0.3371
vn -0.2717 0.9216 -0.2771
vn -0.0919 0.9468 0.3084
vn -0.1655 0.9651 0.2030
vn 0.3356 0.8641 0.3752
vn 0.2776 0.9441 0.1775
vn 0.0385 0.9889 -0.1438
vn 0.2919 0.7682 0.5698
vn 0.1526 0.9083 0.3896
vn 0.1175 0.9845 0.1304
vn 0.0517 0.9926 -0.1098
vn 0.4250 0.7455 -0.5134
vn 0.0803 0.8576 -0.5081
vn -0.0812 0.9462 -0.3131
vn 0.6102 0.7813 -0.1312
vn 0.2586 0.9594 -0.1130
vn -0.4733 0.8758 0.0949
vn -0.5038 0.7960 -0.3355
vn -0.2081 0.9001 -0.3827
vn 0.0385 0.9938 0.1043
vn -0.1916 0.9242 0.3304
vn -0.5932 0.7443 -0.3068
vn -0.6142 0.7330 0.2922
vn 0.1901 0.9757 -0.1093
vn 0.4226 0.9061 0.0195
vn 0.4424 0.8270 0.3469
vn 0.1789 0.8791 -0.4419
vn 0.0533 0.9293 -0.3656
vn -0.0575 0.9916 -0.1155
vn 0.3601 0.8731 0.3288
vn 0.1008 0.8751 -0.4734
vn 0.3669 0.7401 -0.5636
vn 0.1216 0.8842 -0.4509
vn -0.1406 0.9052 -0.4012
vn 0.0268 0.9955 0.0906
vn -0.2485 0.9686 -0.0007
vn 0.5293 0.7926 0.3026
vn 0.2623 0.9048 -0.3356
vn 0.2032 0.7352 -0.6467
vn 0.1588 0.9399 -0.3024
vn 0.1937 0.9315 -0.3080
vn 0.1154 0.9469 -0.3002
vn 0.0248 0.9997 0.0059
vn -0.3211 0.9446 -0.0683
vn -0.0716 0.9837 -0.1651
vn 0.1302 0.8136 -0.5666
vn 0.3260 0.9431 0.0657
vn 0.1711 0.9848 0.0314
vn 0.3058 0.9121 0.2732
vn 0.3178 0.9033 0.2883
vn 0.4372 0.8860 0.1546
vn 0.3062 0.9023 -0.3036
vn 0.3006 0.7286 0.6154
vn 0.3827 0.8026 0.4577
vn -0.1002 0.9399 -0.3263
vn 0.1357 0.9232 -0.3595
vn 0.2211 0.9269 -0.3032
vn -0.3655 0.8691 0.3333
vn -0.3552 0.9018 0.2461
vn -0.2835 0.9109 0.2999
vn -0.4495 0.8932 -0.0142
vn -0.5040 0.8635 -0.0199
vn -0.4752 0.8755 -0.0882
vn -0.4163 0.9062 -0.0745
vn -0.6951 0.7126 0.0955
vn -0.5081 0.8323 0.2217
vn -0.5384 0.8292 0.1500
vn -0.1561 0.9829 0.0976
vn 0.3542 0.9067 0.2290
vn 0.0705 0.9973 -0.0199
vn 0.3083 0.9471 0.0895
vn 0.4049 0.8084 -0.4274
vn 0.4710 0.8632 -0.1819
vn -0.0700 0.9917 -0.1078
vn -0.6720 0.7121 -0.2033
vn -0.0998 0.9638 0.2474
vn 0.0247 0.9949 0.0981
vn -0.0582 0.9982 0.0133
vn -0.1437 0.9546 -0.2611
vn -0.0290 0.9461 -0.3226
vn -0.5054 0.8444 -0.1777
vn -0.5101 0.7257 -0.4617
vn -0.5155 0.6726 -0.5310
vn 0.4729 0.7950 -0.3798
vn 0.0989 0.8694 -0.4840
vn 0.2759 0.9451 0.1752
vn 0.3150 0.7726 0.5512
vn -0.1449 0.8344 -0.5317
vn -0.1862 0.9797 0.0748
vn 0.5013 0.8586 0.1076
vn -0.0148 0.9698 -0.2435
vn -0.0300 0.8108 -0.5846
vn 0.2887 0.8261 -0.4840
vn 0.2083 0.9597 0.1886
vn 0.2473 0.8230 0.5114
vn 0.1958 0.8504 0.4884
vn 0.2992 0.7405 0.6018
vn 0.2440 0.7742 0.5840
vn 0.4150 0.8980 -0.1461
vn 0.0531 0.9661 0.2528
vn 0.0379 0.8507 0.5243
vn -0.0882 0.9856 -0.1441
vn 0.3915 0.9185 -0.0554
vn -0.4748 0.8593 0.1901
vn -0.5039 0.8555 -0.1190
vn -0.0451 0.9983 -0.0383
vn -0.3887 0.8865 0.2511
vn -0.1984 0.9293 -0.3114
vn -0.1214 0.9769 -0.1758
vn -0.1889 0.9725 0.1364
vn -0.4539 0.8893 0.0559
vn -0.2306 0.9464 0.2261
vn 0.3087 0.9065 -0.2882
vn 0.4205 0.8563 -0.2999
vn 0.2525 0.9323 -0.2591
vn 0.1715 0.7212 -0.6712
vn 0.1460 0.9715 0.1866
vn 0.0290 0.9955 -0.0906
vn -0.0427 0.7896 -0.6121
vn 0.1105 0.7560 -0.6452
vn -0.1755 0.8003 -0.5733
vn 0.4794 0.8776 -0.0004
vn 0.3434 0.7868 -0.5129
vn 0.4037 0.8406 -0.3612
vn -0.0509 0.8945 -0.4442
vn -0.1504 0.9094 -0.3879
vn 0.1270 0.8675 -0.4809
vn -0.4141 0.9090 0.0478
vn -0.2882 0.9509 -0.1131
vn -0.3478 0.9285 0.1297
vn 0.0139 0.9088 0.4170
vn -0.2738 0.9412 -0.1981
vn -0.3504 0.9029 -0.2490
vn 0.0075 0.9935 0.1132
vn 0.3545 0.9351 0.0037
vn -0.2950 0.9526 0.0744
vn -0.3044 0.8702 -0.3874
vn -0.1323 0.9879 -0.0813
vn -0.4280 0.8956 -0.1211
vn -0.6051 0.7722 0.1937
vn -0.5045 0.8047 0.3129
vn -0.4074 0.8174 0.4073
vn 0.2959 0.9371 -0.1853
vn 0.4340 0.8998 -0.0447
vn -0.4205 0.9028 0.0903
vn 0.2906 0.9556 -0.0481
vn 0.1104 0.9217 0.3719
vn -0.5689 0.7942 0.2138
vn 0.0629 0.9421 -0.3294
vn -0.1985 0.8607 -0.4689
vn -0.1377 0.9453 0.2958
vn -0.2902 0.9169 0.2740
vn -0.3534 0.9349 -0.0326
vn 0.1277 0.8400 -0.5273
vn -0.0342 0.9044 -0.4252
vn 0.2347 0.9216 -0.3092
vn -0.0456 0.9924 -0.1143
vn -0.0009 0.9972 -0.0748
vn -0.4599 0.7915 -0.4025
vn -0.5864 0.8097 0.0231
vn -0.3301 0.9246 -0.1904
vn -0.2913 0.9506 0.1073
vn 0.1027 0.9895 -0.1021
vn 0.1658 0.9857 -0.0301
vn 0.3285 0.9432 -0.0493
vn 0.4960 0.8584 0.1306
vn 0.3326 0.9204 0.2056
vn -0.3227 0.7866 -0.5265
vn -0.0185 0.8857 -0.4638
vn 0.5063 0.8298 -0.2346
vn -0.0051 0.9114 -0.4114
vn -0.2424 0.9528 0.1829
vn -0.2977 0.9537 0.0432
vn 0.2064 0.8825 0.4226
vn 0.4140 0.8989 0.1435
vn -0.1136 0.9510 0.2875
vn 0.4158 0.7241 0.5502
vn 0.3836 0.7999 0.4615
vn 0.3609 0.9272 0.1006
vn 0.3248 0.9455 0.0227
vn 0.1638 0.8552 -0.4917
vn -0.0470 0.9035 -0.4259
vn -0.2461 0.9692 0.0107
vn -0.1309 0.9913 -0.0170
vn -0.4596 0.8804 -0.1171
vn -0.3997 0.7563 -0.5179
vn -0.4910 0.6620 -0.5662
vn -0.4041 0.8723 -0.2754
vn -0.5010 0.8514 -0.1556
vn -0.2128 0.9416 -0.2611
vn -0.4459 0.7339 -0.5124
vn -0.4200 0.8545 0.3056
vn 0.2307 0.9605 -0.1558
vn 0.2044 0.9479 -0.2443
vn 0.4492 0.8687 -0.2088
vn 0.1956 0.8828 -0.4271
vn 0.1238 0.9860 -0.1113
vn -0.1931 0.9725 -0.1304
vn -0.2102 0.8969 0.3890
vn 0.2167 0.8439 -0.4907
s off
f 24//1 25//1 9//1 8//1
f 152//2 153//2 137//2 136//2
f 156//3 157//3 141//3 140//3
f 220//4 221//4 205//4 204//4
f 148//5 149//5 133//5 132//5
f 212//6 213//6 197//6 196//6
f 216//7 217//7 201//7 200//7
f 20//8 21//8 5//8 4//8
f 84//9 85//9 69//9 68//9
f 88//10 89//10 73//10 72//10
f 28//11 29//11 13//11 12//11
f 92//12 93//12 77//12 76//12
f 94//13 95//13 79//13 78//13
f 126//14 127//14 111//14 110//14
f 90//15 91//15 75//15 74//15
f 122//16 123//16 107//16 106//16
f 124//17 125//17 109//17 108//17
f 26//18 27//18 11//18 10//18
f 58//19 59//19 43//19 42//19
f 60//20 61//20 45//20 44//20
f 86//21 87//21 71//21 70//21
f 118//22 119//22 103//22 102//22
f 120//23 121//23 105//23 104//23
f 82//24 83//24 67//24 66//24
f 114//25 115//25 99//25 98//25
f 116//26 117//26 101//26 100//26
f 18//27 19//27 3//27 2//27
f 50//28 51//28 35//28 34//28
f 52//29 53//29 37//29 36//29
f 214//30 215//30 199//30 198//30
f 246//31 247//31 231//31 230//31
f 248//32 249//32 233//32 232//32
f 210//33 211//33 195//33 194//33
f 242//34 243//34 227//34 226//34
f 244//35 245//35 229//35 228//35
f 146//36 147//36 131//36 130//36
f 178//37 179//37 163//37 162//37
f 180//38 181//38 165//38 164//38
f 222//39 223//39 207//39 206//39
f 254//40 255//40 239//40 238//40
f 218//41 219//41 203//41 202//41
f 250//42 251//42 235//42 234//42
f 252//43 253//43 237//43 236//43
f 154//44 155//44 139//44 138//44
f 186//45 187//45 171//45 170//45
f 188//46 189//46 173//46 172//46
f 158//47 159//47 143//47 142//47
f 190//48 191//48 175//48 174//48
f 150//49 151//49 135//49 134//49
f 182//50 183//50 167//50 166//50
f 184//51 185//51 169//51 168//51
f 22//52 23//52 7//52 6//52
f 54//53 55//53 39//53 38//53
f 56//54 57//54 41//54 40//54
f 30//55 31//55 15//55 14//55
f 62//56 63//56 47//56 46//56
f 63//57 64//57 48//57 47//57
f 79//58 80//58 64//58 63//58
f 61//59 62//59 46//59 45//59
f 77//60 78//60 62//60 61//60
f 78//61 79//61 63//61 62//61
f 29//62 30//62 14//62 13//62
f 45//63 46//63 30//63 29//63
f 46//64 47//64 31//64 30//64
f 55//65 56//65 40//65 39//65
f 71//66 72//66 56//66 55//66
f 72//67 73//67 57//67 56//67
f 53//68 54//68 38//68 37//68
f 69//69 70//69 54//69 53//69
f 70//70 71//70 55//70 54//70
f 21//71 22//71 6//71 5//71
f 37//72 38//72 22//72 21//72
f 38//73 39//73 23//73 22//73
f 183//74 184//74 168//74 167//74
f 199//75 200//75 184//75 183//75
f 200//76 201//76 185//76 184//76
f 181//77 182//77 166//77 165//77
f 197//78 198//78 182//78 181//78
f 198//79 199//79 183//79 182//79
f 149//80 150//80 134//80 133//80
f 165//81 166//81 150//81 149//81
f 166//82 167//82 151//82 150//82
f 191//83 192//83 176//83 175//83
f 207//84 208//84 192//84 191//84
f 189//85 190//85 174//85 173//85
f 205//86 206//86 190//86 189//86
f 206//87 207//87 191//87 190//87
f 157//88 158//88 142//88 141//88
f 173//89 174//89 158//89 157//89
f 174//90 175//90 159//90 158//90
f 187//91 188//91 172//91 171//91
f 203//92 204//92 188//92 187//92
f 204//93 205//93 189//93 188//93
f 185//94 186//94 170//94 169//94
f 201//95 202//95 186//95 185//95
f 202//96 203//96 187//96 186//96
f 153//97 154//97 138//97 137//97
f 169//98 170//98 154//98 153//98
f 170//99 171//99 155//99 154//99
f 251//100 252//100 236//100 235//100
f 249//101 250//101 234//101 233//101
f 217//102 218//102 202//102 201//102
f 233//103 234//103 218//103 217//103
f 234//104 235//104 219//104 218//104
f 255//105 256//105 240//105 239//105
f 253//106 254//106 238//106 237//106
f 221//107 222//107 206//107 205//107
f 237//108 238//108 222//108 221//108
f 238//109 239//109 223//109 222//109
f 179//110 180//110 164//110 163//110
f 195//111 196//111 180//111 179//111
f 196//112 197//112 181//112 180//112
f 177//113 178//113 162//113 161//113
f 193//114 194//114 178//114 177//114
f 194//115 195//115 179//115 178//115
f 145//116 146//116 130//116 129//116
f 161//117 162//117 146//117 145//117
f 162//118 163//118 147//118 146//118
f 243//119 244//119 228//119 227//119
f 241//120 242//120 226//120 225//120
f 209//121 210//121 194//121 193//121
f 225//122 226//122 210//122 209//122
f 226//123 227//123 211//123 210//123
f 247//124 248//124 232//124 231//124
f 245//125 246//125 230//125 229//125
f 213//126 214//126 198//126 197//126
f 229//127 230//127 214//127 213//127
f 230//128 231//128 215//128 214//128
f 51//129 52//129 36//129 35//129
f 67//130 68//130 52//130 51//130
f 68//131 69//131 53//131 52//131
f 49//132 50//132 34//132 33//132
f 65//133 66//133 50//133 49//133
f 66//134 67//134 51//134 50//134
f 17//135 18//135 2//135 1//135
f 33//136 34//136 18//136 17//136
f 34//137 35//137 19//137 18//137
f 115//138 116//138 100//138 99//138
f 131//139 132//139 116//139 115//139
f 132//140 133//140 117//140 116//140
f 113//141 114//141 98//141 97//141
f 129//142 130//142 114//142 113//142
f 130//143 131//143 115//143 114//143
f 81//144 82//144 66//144 65//144
f 97//145 98//145 82//145 81//145
f 98//146 99//146 83//146 82//146
f 119//147 120//147 104//147 103//147
f 135//148 136//148 120//148 119//148
f 136//149 137//149 121//149 120//149
f 117//150 118//150 102//150 101//150
f 133//151 134//151 118//151 117//151
f 134//152 135//152 119//152 118//152
f 85//153 86//153 70//153 69//153
f 101//154 102//154 86//154 85//154
f 102//155 103//155 87//155 86//155
f 59//156 60//156 44//156 43//156
f 75//157 76//157 60//157 59//157
f 76//158 77//158 61//158 60//158
f 57//159 58//159 42//159 41//159
f 73//160 74//160 58//160 57//160
f 74//161 75//161 59//161 58//161
f 25//162 26//162 10//162 9//162
f 41//163 42//163 26//163 25//163
f 42//164 43//164 27//164 26//164
f 123//165 124//165 108//165 107//165
f 139//166 140//166 124//166 123//166
f 140//167 141//167 125//167 124//167
f 121//168 122//168 106//168 105//168
f 137//169 138//169 122//169 121//169
f 138//170 139//170 123//170 122//170
f 89//171 90//171 74//171 73//171
f 105//172 106//172 90//172 89//172
f 106//173 107//173 91//173 90//173
f 127//174 128//174 112//174 111//174
f 143//175 144//175 128//175 127//175
f 125//176 126//176 110//176 109//176
f 141//177 142//177 126//177 125//177
f 142//178 143//178 127//178 126//178
f 93//179 94//179 78//179 77//179
f 109//180 110//180 94//180 93//180
f 110//181 111//181 95//181 94//181
f 95//182 96//182 80//182 79//182
f 111//183 112//183 96//183 95//183
f 91//184 92//184 76//184 75//184
f 107//185 108//185 92//185 91//185
f 108//186 109//186 93//186 92//186
f 27//187 28//187 12//187 11//187
f 43//188 44//188 28//188 27//188
f 44//189 45//189 29//189 28//189
f 87//190 88//190 72//190 71//190
f 103//191 104//191 88//191 87//191
f 104//192 105//192 89//192 88//192
f 83//193 84//193 68//193 67//193
f 99//194 100//194 84//194 83//194
f 100//195 101//195 85//195 84//195
f 19//196 20//196 4//196 3//196
f 35//197 36//197 20//197 19//197
f 36//198 37//198 21//198 20//198
f 215//199 216//199 200//199 199//199
f 231//200 232//200 216//200 215//200
f 232//201 233//201 217//201 216//201
f 211//202 212//202 196//202 195//202
f 227//203 228//203 212//203 211//203
f 228//204 229//204 213//204 212//204
f 147//205 148//205 132//205 131//205
f 163//206 164//206 148//206 147//206
f 164//207 165//207 149//207 148//207
f 223//208 224//208 208//208 207//208
f 239//209 240//209 224//209 223//209
f 219//210 220//210 204//210 203//210
f 235//211 236//211 220//211 219//211
f 236//212 237//212 221//212 220//212
f 155//213 156//213 140//213 139//213
f 171//214 172//214 156//214 155//214
f 172//215 173//215 157//215 156//215
f 159//216 160//216 144//216 143//216
f 175//217 176//217 160//217 159//217
f 151//218 152//218 136//218 135//218
f 167//219 168//219 152//219 151//219
f 168//220 169//220 153//220 152//220
f 23//221 24//221 8//221 7//221
f 39//222 40//222 24//222 23//222
f 40//223 41//223 25//223 24//223
f 31//224 32//224 16//224 15//224
f 47//225 48//225 32//225 31//225
