# Blender v2.79 (sub 0) OBJ File: ''
# www.blender.org
o Plane
v -3.683600 -0.612100 -3.813777
v -2.610216 -0.770553 -3.813777
v -1.536832 -0.560432 -3.813777
v -0.463448 -0.609847 -3.813777
v 0.609936 -0.655340 -3.813777
v 1.683320 -0.599791 -3.813777
v 2.756704 -0.837624 -3.813777
v 3.830088 -1.035731 -3.813777
v -3.683600 -1.129650 -2.740393
v -2.610216 -0.554155 -2.740393
v -1.536832 -0.131294 -2.740393
v -0.463448 -0.069885 -2.740393
v 0.609936 0.319484 -2.740393
v 1.683320 -0.079615 -2.740393
v 2.756704 -0.278629 -2.740393
v 3.830088 -0.556195 -2.740393
v -3.683600 -1.169416 -1.667009
v -2.610216 -0.649277 -1.667009
v -1.536832 -0.548987 -1.667009
v -0.463448 -0.064278 -1.667009
v 0.609936 0.216557 -1.667009
v 1.683320 -0.126334 -1.667009
v 2.756704 -0.300257 -1.667009
v 3.830088 -0.292288 -1.667009
v -3.683600 -1.423926 -0.593625
v -2.610216 -1.002814 -0.593625
v -1.536832 -0.894826 -0.593625
v -0.463448 -0.193321 -0.593625
v 0.609936 -0.105978 -0.593625
v 1.683320 0.183568 -0.593625
v 2.756704 0.234379 -0.593625
v 3.830088 -0.136231 -0.593625
v -3.683600 -0.872242 0.479759
v -2.610216 -0.835073 0.479759
v -1.536832 -0.676191 0.479759
v -0.463448 -0.113277 0.479759
v 0.609936 -0.103719 0.479759
v 1.683320 0.336475 0.479759
v 2.756704 0.441885 0.479759
v 3.830088 0.366006 0.479759
v -3.683600 -0.061011 1.553143
v -2.610216 0.017815 1.553143
v -1.536832 0.164770 1.553143
v -0.463448 0.482564 1.553143
v 0.609936 -0.208986 1.553143
v 1.683320 0.328779 1.553143
v 2.756704 0.795958 1.553143
v 3.830088 0.124086 1.553143
v -3.683600 1.090827 2.626527
v -2.610216 0.698292 2.626527
v -1.536832 1.022228 2.626527
v -0.463448 0.749314 2.626527
v 0.609936 0.131121 2.626527
v 1.683320 0.243909 2.626527
v 2.756704 0.580913 2.626527
v 3.830088 0.012406 2.626527
v -3.683600 1.952568 3.699911
v -2.610216 1.834581 3.699911
v -1.536832 1.456119 3.699911
v -0.463448 0.997970 3.699911
v 0.609936 0.715888 3.699911
v 1.683320 0.725274 3.699911
v 2.756704 0.599168 3.699911
v 3.830088 -0.004979 3.699911
vn -0.1298 0.8102 -0.5717
vn 0.2958 0.9312 -0.2128
vn -0.2546 0.9547 -0.1540
vn -0.0952 0.9695 -0.2256
vn -0.1111 0.7802 -0.6156
vn 0.0205 0.8070 -0.5902
vn 0.3641 0.8682 -0.3371
vn -0.2717 0.9216 -0.2771
vn -0.0919 0.9468 0.3084
vn -0.1655 0.9651 0.2030
vn 0.1789 0.8791 -0.4419
vn 0.0533 0.9293 -0.3656
vn 0.1588 0.9399 -0.3024
vn 0.1937 0.9315 -0.3080
vn 0.0248 0.9997 0.0059
vn -0.3211 0.9446 -0.0683
vn -0.0716 0.9837 -0.1651
vn 0.1302 0.8136 -0.5666
vn 0.3260 0.9431 0.0657
vn 0.1711 0.9848 0.0314
vn -0.4748 0.8593 0.1901
vn -0.5039 0.8555 -0.1190
vn -0.0451 0.9983 -0.0383
vn -0.3887 0.8865 0.2511
vn -0.1984 0.9293 -0.3114
vn -0.1214 0.9769 -0.1758
vn -0.1889 0.9725 0.1364
vn -0.4539 0.8893 0.0559
vn -0.2306 0.9464 0.2261
vn 0.3087 0.9065 -0.2882
vn 0.1715 0.7212 -0.6712
vn -0.0427 0.7896 -0.6121
vn 0.1105 0.7560 -0.6452
vn -0.1755 0.8003 -0.5733
vn 0.4794 0.8776 -0.0004
vn -0.0509 0.8945 -0.4442
vn -0.4141 0.9090 0.0478
vn -0.2882 0.9509 -0.1131
vn -0.3478 0.9285 0.1297
vn 0.3285 0.9432 -0.0493
vn 0.4960 0.8584 0.1306
vn -0.3227 0.7866 -0.5265
vn -0.0185 0.8857 -0.4638
vn 0.5063 0.8298 -0.2346
vn -0.0051 0.9114 -0.4114
vn -0.2424 0.9528 0.1829
vn -0.2977 0.9537 0.0432
vn 0.1956 0.8828 -0.4271
vn 0.1238 0.9860 -0.1113
s off
f 12//1 13//1 5//1 4//1
f 44//2 45//2 37//2 36//2
f 46//3 47//3 39//3 38//3
f 62//4 63//4 55//4 54//4
f 42//5 43//5 35//5 34//5
f 58//6 59//6 51//6 50//6
f 60//7 61//7 53//7 52//7
f 10//8 11//8 3//8 2//8
f 26//9 27//9 19//9 18//9
f 28//10 29//10 21//10 20//10
f 14//11 15//11 7//11 6//11
f 30//12 31//12 23//12 22//12
f 31//13 32//13 24//13 23//13
f 39//14 40//14 32//14 31//14
f 29//15 30//15 22//15 21//15
f 37//16 38//16 30//16 29//16
f 38//17 39//17 31//17 30//17
f 13//18 14//18 6//18 5//18
f 21//19 22//19 14//19 13//19
f 22//20 23//20 15//20 14//20
f 27//21 28//21 20//21 19//21
f 35//22 36//22 28//22 27//22
f 36//23 37//23 29//23 28//23
f 25//24 26//24 18//24 17//24
f 33//25 34//25 26//25 25//25
f 34//26 35//26 27//26 26//26
f 9//27 10//27 2//27 1//27
f 17//28 18//28 10//28 9//28
f 18//29 19//29 11//29 10//29
f 59//30 60//30 52//30 51//30
f 57//31 58//31 50//31 49//31
f 41//32 42//32 34//32 33//32
f 49//33 50//33 42//33 41//33
f 50//34 51//34 43//34 42//34
f 63//35 64//35 56//35 55//35
f 61//36 62//36 54//36 53//36
f 45//37 46//37 38//37 37//37
f 53//38 54//38 46//38 45//38
f 54//39 55//39 47//39 46//39
f 47//40 48//40 40//40 39//40
f 55//41 56//41 48//41 47//41
f 43//42 44//42 36//42 35//42
f 51//43 52//43 44//43 43//43
f 52//44 53//44 45//44 44//44
f 11//45 12//45 4//45 3//45
f 19//46 20//46 12//46 11//46
f 20//47 21//47 13//47 12//47
f 15//48 16//48 8//48 7//48
f 23//49 24//49 16//49 15//49
